<?xml version="1.0" encoding="UTF-8"?>
<svg id="Layer_2" data-name="Layer 2" xmlns="http://www.w3.org/2000/svg" viewBox="0 0 405.31 399.97">
  <defs>
    <style>
      .cls-1, .cls-2, .cls-3, .cls-4 {
        stroke-width: 0px;
      }

      .cls-1, .cls-2, .cls-4 {
        fill: #f15b40;
      }

      .cls-2 {
        opacity: .2;
      }

      .cls-3 {
        fill: #155bcf;
      }

      .cls-4 {
        opacity: .5;
      }
    </style>
  </defs>
  <g id="FA">
    <g id="color-logo">
      <path id="A" class="cls-3" d="m405.31,268.68c-1.11.05-10.05.05-17.18.04-5.58,0-10.76,2.9-13.67,7.66l-9.3,15.23-5.4-9.47c-1.62-2.85-1.54-6.36.22-9.13l7.91-12.4c2.94-4.61,8.03-7.4,13.49-7.4h14.96l8.98,15.48Zm-35.09-30.84c7.13,0,16.07.01,17.18-.04l-.88-1.51h0l-8.15-14.05L267.49,30.17l-12.79-22.17c-6.16-10.67-21.55-10.67-27.71,0l-12.79,22.16-93.45,161.97c-3.51,6.08-5.35,12.97-5.35,19.99v45.65c0,8.84-7.16,16-16,16h-11.89c-8.58,0-16.5,4.58-20.79,12.01L.97,399.72h69.6c22.87,0,44.01-12.21,55.44-32.02l134.56-233.23c3.08-5.33,10.78-5.33,13.86,0l68.53,118.71,4.3,7.55,9.3-15.23c2.91-4.76,8.09-7.67,13.67-7.66Z"/>
      <g>
        <rect class="cls-3" x="172.54" y="337.15" width="14.97" height="14.97" rx="2" ry="2" transform="translate(296.42 -26.35) rotate(45)"/>
        <path class="cls-3" d="m380.93,293l-3.3,5.4c-.77,1.26-1.17,2.7-1.17,4.17v68.87c0,.36.29.65.65.65h14.01c.36,0,.65-.29.65-.65v-85.85c-4.46.8-8.43,3.46-10.84,7.41Z"/>
        <path class="cls-3" d="m206,326.66l-3.3,5.39c-.77,1.26-1.18,2.7-1.18,4.18v33.99c0,1.95-.22,3.8-.65,5.54-2.5,5.86-6.52,8.8-12.05,8.8h-20.42c-5.54,0-9.56-2.93-12.05-8.8-.43-1.74-.65-3.58-.65-5.54v-25.77c0-2.05-2.71-2.77-3.73-1l-10.51,18.22c-.7,1.22-1.07,2.59-1.07,4v4.55c0,12.11,6.41,21.23,19.22,27.37,2.95,1.26,6.21,1.91,9.78,1.95h0s.32,0,.32,0h18.14,0c3.56-.04,6.83-.69,9.78-1.95,12.81-6.14,19.22-15.26,19.22-27.37v-50.96c-4.46.8-8.43,3.46-10.84,7.41Z"/>
        <path class="cls-3" d="m317.63,340.41l-9.35-9.35c-6.25-6.25-16.38-6.25-22.63,0l-19.69,19.69c-1.86,1.76-3.8,3.65-5.82,5.7h-4.73c-.38-.01-.74-.03-1.08-.04-2.98-.13-5.92-1.06-8.27-2.9-2.77-2.17-4.16-4.87-4.16-8.11v-13.95s0,0,0,0v-45.85c-4.37.8-8.25,3.46-10.61,7.41l-3.23,5.4c-.75,1.26-1.15,2.7-1.15,4.17v46.07c0,2.01.54,4.62,1.63,7.82,5.54,10.43,12.81,15.64,21.83,15.64h12.38c3.08,0,6.69-2.31,10.82-6.89l9.23,9.23c4.52,4.52,10.54,7.35,16.93,7.53,7.85.22,15.2-3.25,20.08-9.6,2.55-3.32,4.19-7.29,4.74-11.44,1.01-7.71-1.55-15.14-6.91-20.5Zm-10.61,23.82c-3.65,3.65-9.56,3.65-13.21,0l-10.06-10.06,13.21-13.21,10.06,10.06c3.65,3.65,3.65,9.56,0,13.21Z"/>
        <path id="_ر" data-name="ر" class="cls-3" d="m345.72,331.79l-3.23,5.4c-.75,1.26-1.15,2.7-1.15,4.17v30.59c0,.87-.22,2.28-.65,4.24-1.7,4.54-7.04,7.01-10.67,7.49h-.8c-1.62,0-3.2.43-4.58,1.25l-5.93,3.51c-4.33,2.56-7.25,6.79-8.13,11.54h20.35s.09-.02.14-.03c4.13-.14,8.32-1.31,12.55-3.56,8.47-6.24,12.71-13.63,12.71-22.16v-49.85c-4.37.8-8.25,3.46-10.61,7.41Z"/>
      </g>
      <g>
        <rect class="cls-2" x="66.1" y="124.46" width="36" height="36" rx="4" ry="4"/>
        <path id="data" class="cls-1" d="m38.1,187.87h56c4.42,0,8,3.58,8,8v56c0,4.42-3.58,8-8,8h-56c-4.42,0-8-3.58-8-8v-56c0-4.42,3.58-8,8-8Z"/>
        <rect class="cls-4" y="129.46" width="48" height="48" rx="4.38" ry="4.38"/>
      </g>
    </g>
  </g>
</svg>